<?xml version="1.0" encoding="UTF-8" standalone="no"?>
<svg
   xmlns:dc="http://purl.org/dc/elements/1.1/"
   xmlns:cc="http://creativecommons.org/ns#"
   xmlns:rdf="http://www.w3.org/1999/02/22-rdf-syntax-ns#"
   xmlns:svg="http://www.w3.org/2000/svg"
   xmlns="http://www.w3.org/2000/svg"
   xmlns:sodipodi="http://sodipodi.sourceforge.net/DTD/sodipodi-0.dtd"
   xmlns:inkscape="http://www.inkscape.org/namespaces/inkscape"
   version="1.1"
   id="sofa"
   x="0px"
   y="0px"
   width="32px"
   height="32px"
   viewBox="0 0 32 32"
   enable-background="new 0 0 32 32"
   xml:space="preserve"
   inkscape:version="0.48.4 r9939"
   sodipodi:docname="sofa_choice.svg"><metadata
     id="metadata9"><rdf:RDF><cc:Work
         rdf:about=""><dc:format>image/svg+xml</dc:format><dc:type
           rdf:resource="http://purl.org/dc/dcmitype/StillImage" /><dc:title></dc:title></cc:Work></rdf:RDF></metadata><defs
     id="defs7" /><sodipodi:namedview
     pagecolor="#ffffff"
     bordercolor="#666666"
     borderopacity="1"
     objecttolerance="10"
     gridtolerance="10"
     guidetolerance="10"
     inkscape:pageopacity="0"
     inkscape:pageshadow="2"
     inkscape:window-width="1366"
     inkscape:window-height="687"
     id="namedview5"
     showgrid="false"
     showguides="true"
     inkscape:guide-bbox="true"
     inkscape:zoom="10.429825"
     inkscape:cx="32.06203"
     inkscape:cy="11.108759"
     inkscape:window-x="0"
     inkscape:window-y="26"
     inkscape:window-maximized="1"
     inkscape:current-layer="sofa" /><path
     d="m 25.967513,11.836929 0,-6.9313111 -19.2666961,0 0,6.9313111 -3.211116,0 0,13.862623 3.211116,0 0,2.310437 1.6055577,0 0,-2.310437 16.0555804,0 0,2.310437 1.605558,0 0,-2.310437 3.211116,0 0,-13.862623 z M 8.3063746,7.216055 l 16.4080204,3e-7 -0.0395,11.5521857 -16.3685274,0 z m 19.2666964,16.17306 -22.4778121,0 0,-9.241748 1.605558,0 0,6.931311 19.2666961,0 0,-6.931311 1.605558,0 z"
     id="path3"
     inkscape:connector-curvature="0"
     sodipodi:nodetypes="ccccccccccccccccccccccccccccccc"
     style="fill:#d40000" /></svg>